# Blender v2.76 (sub 0) OBJ File: ''
# www.blender.org
mtllib InariFrame.mtl
o Frame_Black_Material.007
v 21.999998 -31.999998 -1.157429
v 21.999998 -32.000000 -0.657429
v -22.000006 -32.000000 -0.657429
v -21.999994 -31.999998 -1.157429
v 22.000013 32.000000 -1.157412
v -21.999996 32.000000 -1.157412
v -22.000006 31.999998 -0.657412
v 21.999989 31.999998 -0.657412
vt 0.000000 0.000000
vt 1.000000 0.000000
vt 1.000000 1.000000
vt 0.000000 1.000000
vn 0.000000 -1.000000 0.000000
vn 0.000000 1.000000 0.000000
vn 1.000000 0.000000 0.000000
vn 0.000000 -0.000000 1.000000
vn -1.000000 0.000000 -0.000000
vn 0.000000 0.000000 -1.000000
usemtl Material.001
s off
f 2/1/1 3/2/1 4/3/1
f 6/1/2 7/2/2 8/3/2
f 5/1/3 8/2/3 2/3/3
f 8/1/4 7/2/4 3/3/4
f 3/4/5 7/1/5 6/2/5
f 1/1/6 4/2/6 6/3/6
f 1/4/1 2/1/1 4/3/1
f 5/4/2 6/1/2 8/3/2
f 1/4/3 5/1/3 2/3/3
f 2/4/4 8/1/4 3/3/4
f 4/3/5 3/4/5 6/2/5
f 5/4/6 1/1/6 6/3/6
o Photo_Cube_Material_Inari.jpg
v 20.000000 29.999990 0.000009
v -19.974976 30.000015 0.000009
v -20.024994 -29.999983 -0.000009
v 19.999985 -30.000021 -0.000009
vt 0.000000 1.000000
vt 0.000000 0.000001
vt 0.999999 0.000000
vt 0.999999 1.000000
vn -0.000000 -0.000000 1.000000
usemtl Material_Inari.jpg
s off
f 10/5/7 11/6/7 12/7/7
f 9/8/7 10/5/7 12/7/7
o MetalFrame_Cylinder_Aluminium.006
v -22.007042 31.938425 -1.593175
v -22.007042 31.938425 -1.593175
v -23.013622 32.945282 -1.594226
v -23.013622 32.945282 -1.594226
v -24.014790 33.946800 -1.595808
v -24.014790 33.946800 -1.595808
v -24.018532 33.950600 -0.192083
v -24.018532 33.950600 -0.192083
v -23.724159 33.656189 -0.090629
v -23.724159 33.656189 -0.090629
v -23.013535 32.945374 -0.055329
v -23.013535 32.945374 -0.055329
v -22.302940 32.234528 -0.090629
v -22.302940 32.234528 -0.090629
v -22.008633 31.940065 -0.192085
v -22.008633 31.940065 -0.192085
v -22.008633 31.940065 -0.192085
v -22.007042 31.938425 -1.593175
v -22.302940 32.234528 -0.090629
v -23.013535 32.945374 -0.055329
v -23.724159 33.656189 -0.090629
v -24.018532 33.950600 -0.192083
v -24.014790 33.946800 -1.595808
v -23.013622 32.945282 -1.594226
v -22.007042 31.938425 -1.593175
v -23.013622 32.945282 -1.594226
v -24.014790 33.946800 -1.595808
v -24.018532 33.950600 -0.192083
v -23.724159 33.656189 -0.090629
v -23.013535 32.945374 -0.055329
v -22.302940 32.234528 -0.090629
v -22.008633 31.940065 -0.192085
v -22.008633 31.940065 -0.192085
v -22.007042 31.938425 -1.593175
v -22.302940 32.234528 -0.090629
v -23.013535 32.945374 -0.055329
v -23.724159 33.656189 -0.090629
v -24.018532 33.950600 -0.192083
v -24.014790 33.946800 -1.595808
v -23.013622 32.945282 -1.594226
v -22.010426 -31.950119 -1.595238
v -23.013535 -32.953243 -1.596294
v -24.011322 -33.950981 -1.597885
v -24.015102 -33.954708 -0.190871
v -23.721794 -33.661346 -0.088866
v -23.013626 -32.953163 -0.053376
v -22.305428 -32.245003 -0.088866
v -22.012058 -31.951702 -0.190869
v 21.974634 31.941713 -0.190693
v 21.974634 31.941713 -0.190693
v 21.972994 31.940142 -1.595647
v 21.972994 31.940142 -1.595647
v 22.267937 32.235367 -0.088592
v 22.267937 32.235367 -0.088592
v 22.975933 32.944405 -0.053068
v 22.975933 32.944405 -0.053068
v 23.683891 33.653465 -0.088592
v 23.683891 33.653465 -0.088592
v 23.977100 33.947197 -0.190691
v 23.977100 33.947197 -0.190691
v 23.973305 33.943481 -1.598297
v 23.973305 33.943481 -1.598297
v 22.975803 32.944511 -1.596704
v 22.975803 32.944511 -1.596704
v -22.004375 31.941950 -1.595647
v -23.009125 32.944389 -1.596704
v -24.008465 33.941513 -1.598297
v -24.012184 33.945305 -0.190691
v -23.718342 33.652206 -0.088592
v -23.009014 32.944519 -0.053068
v -22.299713 32.236786 -0.088592
v -22.005951 31.943590 -0.190693
v -22.004372 31.943697 -0.190693
v -22.002728 31.945269 -1.595647
v -23.013535 -32.953243 -1.596294
v -22.010426 -31.950119 -1.595238
v 21.980909 -31.949852 -1.595238
v 22.983831 -32.953163 -1.596294
v -24.011322 -33.950981 -1.597885
v 23.981367 -33.951153 -1.597885
v -24.015102 -33.954708 -0.190871
v 23.985094 -33.954933 -0.190871
v -23.721794 -33.661346 -0.088866
v 23.691790 -33.661568 -0.088866
v -23.013626 -32.953163 -0.053376
v 22.983751 -32.953255 -0.053376
v -22.305428 -32.245003 -0.088866
v 22.275732 -32.244915 -0.088866
v -22.012058 -31.951702 -0.190869
v 21.982492 -31.951485 -0.190869
v 21.980909 -31.949852 -1.595238
v 21.982492 -31.951485 -0.190869
v 22.275732 -32.244915 -0.088866
v 22.983751 -32.953255 -0.053376
v 23.691790 -33.661568 -0.088866
v 23.985094 -33.954933 -0.190871
v 23.981367 -33.951153 -1.597885
v 22.983831 -32.953163 -1.596294
v 22.976805 32.947403 -1.596277
v 21.973682 31.944292 -1.595221
v 23.974606 33.945129 -1.597867
v 23.978384 33.948853 -0.190850
v 23.685074 33.655495 -0.088849
v 22.976896 32.947319 -0.053359
v 22.268690 32.239166 -0.088849
v 21.975315 31.945879 -0.190852
v 21.975315 31.945879 -0.190852
v 21.973682 31.944292 -1.595221
v 22.268690 32.239166 -0.088849
v 22.976896 32.947319 -0.053359
v 23.685074 33.655495 -0.088849
v 23.978384 33.948853 -0.190850
v 23.974606 33.945129 -1.597867
v 22.976805 32.947403 -1.596277
vt 0.000000 1.000000
vt 1.000000 1.000000
vt 1.000000 0.000000
vt 0.000000 0.000000
vn 0.000000 0.000000 1.000000
vn 0.399400 0.000000 0.916700
vn 0.894400 0.000000 0.447300
vn 0.060900 0.000000 0.998100
vn -0.012400 0.000000 0.999900
vn -0.129100 0.000000 0.991600
vn -0.424800 0.000000 0.905300
vn -0.555700 0.000000 0.831400
vn 0.999700 0.020900 -0.007300
vn 0.707100 -0.707100 0.000000
vn 0.707100 -0.707100 0.009900
vn -0.707100 0.707100 -0.000100
vn -0.707200 0.707000 0.000000
vn -0.707100 0.707100 0.000600
vn 0.707100 -0.707100 0.000300
vn 0.000000 -0.400400 0.916300
vn -0.000000 -0.894300 0.447600
vn 0.000000 -0.061400 0.998100
vn 0.000000 0.012500 0.999900
vn 0.000000 0.130000 0.991500
vn 0.000000 0.425200 0.905100
vn 0.000000 0.555800 0.831300
vn 0.000000 -1.000000 -0.007700
vn -0.488100 -0.303800 -0.818100
vn 0.000000 -0.001400 -1.000000
vn -0.000000 0.893900 -0.448300
vn -0.000000 0.923300 0.384000
vn 0.000000 0.260600 0.965400
vn 0.000000 0.025100 0.999700
vn 0.000000 -0.122600 0.992400
vn -0.045500 -0.329900 0.942900
vn -0.069000 0.997600 -0.001200
vn -0.895600 0.444700 -0.000500
vn 0.000000 0.555900 -0.831200
vn -0.302300 0.302200 -0.904000
vn -0.000700 0.000700 -1.000000
vn 0.000000 0.001400 -1.000000
vn 0.576500 -0.576400 -0.579000
vn 0.000000 -0.893600 -0.448800
vn 0.609200 -0.609200 0.507600
vn 0.000000 -0.923100 0.384600
vn 0.132400 -0.132300 0.982300
vn 0.000000 -0.025000 0.999700
vn 0.000000 -0.260100 0.965500
vn 0.000000 0.122500 0.992500
vn 0.012500 -0.012500 0.999800
vn 0.000000 0.727700 0.685900
vn -0.061500 0.061500 0.996200
vn -0.424400 0.424200 0.800000
vn 0.302300 -0.302200 0.904000
vn 0.424400 -0.424200 -0.800000
vn 0.061500 -0.061500 -0.996200
vn -0.012500 0.012500 -0.999800
vn -0.132400 0.132300 -0.982300
vn -0.609200 0.609200 -0.507600
vn -0.576500 0.576400 0.579000
vn 0.000700 -0.000700 1.000000
vn 0.000700 0.000000 1.000000
vn -0.371300 -0.000000 0.928500
vn -0.611100 -0.000000 0.791500
vn -0.981200 -0.000100 0.192800
vn -0.998500 -0.000100 0.053900
vn 0.998600 0.000100 0.052200
vn 0.927400 0.000100 0.374100
vn 0.275400 0.000000 0.961300
vn -0.400300 -0.000000 0.916300
vn -0.061400 0.000000 0.998100
vn 0.012500 0.000000 0.999900
vn 0.130100 0.000000 0.991500
vn 0.425200 0.000000 0.905100
vn 0.555700 0.000000 0.831300
vn -0.996600 0.000100 0.082500
vn -0.894400 -0.000100 0.447200
usemtl Aluminium
s 1
f 13/9/8 14/10/8 15/11/8
f 16/9/8 15/10/8 17/11/8
f 18/9/8 17/10/8 19/11/8
f 20/9/8 19/10/8 21/11/8
f 22/9/8 21/10/8 23/11/8
f 24/9/8 23/10/8 25/11/8
f 26/9/8 25/10/8 27/11/8
f 14/11/8 13/12/8 28/9/8
f 27/9/8 29/10/8 30/11/8
f 25/9/8 31/10/8 29/11/8
f 23/9/8 32/10/8 31/11/8
f 21/9/8 33/10/8 32/11/8
f 19/9/8 34/10/8 33/11/8
f 17/9/8 35/10/8 34/11/8
f 15/9/8 36/10/8 35/11/8
f 14/9/8 30/10/8 36/11/8
f 30/9/8 37/10/8 38/11/8
f 36/9/8 38/10/8 39/11/8
f 35/9/8 39/10/8 40/11/8
f 34/9/8 40/10/8 41/11/8
f 33/9/8 41/10/8 42/11/8
f 32/9/8 42/10/8 43/11/8
f 31/9/8 43/10/8 44/11/8
f 29/9/8 44/10/8 37/11/8
f 44/9/8 45/10/9 46/11/10
f 43/9/8 47/10/11 45/11/9
f 42/9/8 48/10/12 47/11/11
f 41/9/8 49/10/13 48/11/12
f 40/9/8 50/10/14 49/11/13
f 39/9/8 51/10/15 50/11/14
f 38/9/8 52/10/16 51/11/15
f 37/9/8 46/10/10 52/11/16
f 46/9/10 53/10/17 54/11/18
f 52/9/16 54/10/18 55/11/19
f 51/9/15 55/10/19 56/11/19
f 56/10/19 57/11/20 49/12/13
f 57/10/20 58/11/21 48/12/12
f 58/10/21 59/11/22 47/12/11
f 59/10/22 60/11/17 45/12/9
f 60/10/17 53/11/17 46/12/10
f 61/9/8 62/10/23 63/11/24
f 65/9/8 66/10/25 62/11/23
f 67/9/8 68/10/26 66/11/25
f 69/9/8 70/10/27 68/11/26
f 71/9/8 72/10/28 70/11/27
f 73/9/8 74/10/29 72/11/28
f 75/9/8 76/10/30 74/11/29
f 64/9/8 63/10/24 76/11/30
f 77/10/31 78/11/32 76/12/30
f 78/10/32 79/11/33 74/12/29
f 74/9/29 79/10/33 80/11/34
f 72/9/28 80/10/34 81/11/35
f 70/9/27 81/10/35 82/11/36
f 68/9/26 82/10/36 83/11/37
f 66/9/25 83/10/37 84/11/38
f 84/10/38 77/11/31 63/12/24
f 85/10/39 86/11/40 77/12/31
f 88/12/41 89/11/42 90/10/43
f 87/12/44 90/11/43 92/10/45
f 91/12/46 92/11/45 94/10/47
f 93/12/48 94/11/47 96/10/49
f 97/9/50 95/12/51 96/11/49
f 99/9/52 97/12/50 98/11/53
f 101/9/54 99/12/52 100/11/55
f 88/9/41 101/12/54 102/11/56
f 53/12/17 103/11/57 104/10/58
f 60/12/17 104/11/58 105/10/59
f 59/12/22 105/11/59 106/10/60
f 58/12/21 106/11/60 107/10/61
f 57/12/20 107/11/61 108/10/62
f 55/9/19 56/12/19 108/11/62
f 54/9/18 55/12/19 109/11/63
f 53/9/17 54/12/18 110/11/64
f 103/9/57 110/12/64 111/11/65
f 110/9/64 109/12/63 113/11/66
f 109/9/63 108/12/62 114/11/67
f 107/12/61 115/11/68 114/10/67
f 106/12/60 116/11/69 115/10/68
f 105/12/59 117/11/70 116/10/69
f 104/12/58 118/11/71 117/10/70
f 103/12/57 112/11/72 118/10/71
f 89/9/42 102/12/56 119/11/73
f 102/9/56 100/12/55 121/11/74
f 100/9/55 98/12/53 122/11/75
f 98/9/53 96/12/49 123/11/76
f 96/9/49 94/12/47 124/11/77
f 92/12/45 125/11/78 124/10/77
f 90/12/43 126/11/79 125/10/78
f 89/12/42 120/11/80 126/10/79
f 118/9/71 119/10/73 120/11/80
f 117/9/70 121/10/74 119/11/73
f 116/9/69 122/10/75 121/11/74
f 115/9/68 123/10/76 122/11/75
f 114/9/67 124/10/77 123/11/76
f 113/9/66 125/10/78 124/11/77
f 111/9/65 126/10/79 125/11/78
f 112/9/72 120/10/80 126/11/79
f 16/12/8 13/9/8 15/11/8
f 18/12/8 16/9/8 17/11/8
f 20/12/8 18/9/8 19/11/8
f 22/12/8 20/9/8 21/11/8
f 24/12/8 22/9/8 23/11/8
f 26/12/8 24/9/8 25/11/8
f 28/12/8 26/9/8 27/11/8
f 27/10/8 14/11/8 28/9/8
f 14/12/8 27/9/8 30/11/8
f 27/12/8 25/9/8 29/11/8
f 25/12/8 23/9/8 31/11/8
f 23/12/8 21/9/8 32/11/8
f 21/12/8 19/9/8 33/11/8
f 19/12/8 17/9/8 34/11/8
f 17/12/8 15/9/8 35/11/8
f 15/12/8 14/9/8 36/11/8
f 36/12/8 30/9/8 38/11/8
f 35/12/8 36/9/8 39/11/8
f 34/12/8 35/9/8 40/11/8
f 33/12/8 34/9/8 41/11/8
f 32/12/8 33/9/8 42/11/8
f 31/12/8 32/9/8 43/11/8
f 29/12/8 31/9/8 44/11/8
f 30/12/8 29/9/8 37/11/8
f 37/12/8 44/9/8 46/11/10
f 44/12/8 43/9/8 45/11/9
f 43/12/8 42/9/8 47/11/11
f 42/12/8 41/9/8 48/11/12
f 41/12/8 40/9/8 49/11/13
f 40/12/8 39/9/8 50/11/14
f 39/12/8 38/9/8 51/11/15
f 38/12/8 37/9/8 52/11/16
f 52/12/16 46/9/10 54/11/18
f 51/12/15 52/9/16 55/11/19
f 50/12/14 51/9/15 56/11/19
f 50/9/14 56/10/19 49/12/13
f 49/9/13 57/10/20 48/12/12
f 48/9/12 58/10/21 47/12/11
f 47/9/11 59/10/22 45/12/9
f 45/9/9 60/10/17 46/12/10
f 64/12/8 61/9/8 63/11/24
f 61/12/8 65/9/8 62/11/23
f 65/12/8 67/9/8 66/11/25
f 67/12/8 69/9/8 68/11/26
f 69/12/8 71/9/8 70/11/27
f 71/12/8 73/9/8 72/11/28
f 73/12/8 75/9/8 74/11/29
f 75/12/8 64/9/8 76/11/30
f 63/9/24 77/10/31 76/12/30
f 76/9/30 78/10/32 74/12/29
f 72/12/28 74/9/29 80/11/34
f 70/12/27 72/9/28 81/11/35
f 68/12/26 70/9/27 82/11/36
f 66/12/25 68/9/26 83/11/37
f 62/12/23 66/9/25 84/11/38
f 62/9/23 84/10/38 63/12/24
f 84/9/38 85/10/39 77/12/31
f 87/9/44 88/12/41 90/10/43
f 91/9/46 87/12/44 92/10/45
f 93/9/48 91/12/46 94/10/47
f 95/9/51 93/12/48 96/10/49
f 98/10/53 97/9/50 96/11/49
f 100/10/55 99/9/52 98/11/53
f 102/10/56 101/9/54 100/11/55
f 89/10/42 88/9/41 102/11/56
f 60/9/17 53/12/17 104/10/58
f 59/9/22 60/12/17 105/10/59
f 58/9/21 59/12/22 106/10/60
f 57/9/20 58/12/21 107/10/61
f 56/9/19 57/12/20 108/10/62
f 109/10/63 55/9/19 108/11/62
f 110/10/64 54/9/18 109/11/63
f 103/10/57 53/9/17 110/11/64
f 112/10/72 103/9/57 111/11/65
f 111/10/65 110/9/64 113/11/66
f 113/10/66 109/9/63 114/11/67
f 108/9/62 107/12/61 114/10/67
f 107/9/61 106/12/60 115/10/68
f 106/9/60 105/12/59 116/10/69
f 105/9/59 104/12/58 117/10/70
f 104/9/58 103/12/57 118/10/71
f 120/10/80 89/9/42 119/11/73
f 119/10/73 102/9/56 121/11/74
f 121/10/74 100/9/55 122/11/75
f 122/10/75 98/9/53 123/11/76
f 123/10/76 96/9/49 124/11/77
f 94/9/47 92/12/45 124/10/77
f 92/9/45 90/12/43 125/10/78
f 90/9/43 89/12/42 126/10/79
f 112/12/72 118/9/71 120/11/80
f 118/12/71 117/9/70 119/11/73
f 117/12/70 116/9/69 121/11/74
f 116/12/69 115/9/68 122/11/75
f 115/12/68 114/9/67 123/11/76
f 114/12/67 113/9/66 124/11/77
f 113/12/66 111/9/65 125/11/78
f 111/12/65 112/9/72 126/11/79
