# Blender v2.76 (sub 0) OBJ File: ''
# www.blender.org
mtllib mobile_cucina.mtl
o Cube_Cube_Material
v -2.245748 -0.192595 1.132914
v -2.245748 -0.192595 -1.229853
v -2.245748 0.015276 -1.229853
v -2.245748 0.015277 1.132914
v -4.865897 -0.192595 -1.229852
v -4.865897 -0.192595 1.132914
v -4.865897 0.015277 1.132914
v -4.865897 0.015276 -1.229852
v -4.865897 -0.192595 1.375431
v -4.865897 0.015277 1.375431
v -2.245748 0.015277 1.375431
v -2.245748 -0.192595 1.375431
vn 1.000000 0.000000 0.000000
vn -1.000000 0.000000 0.000000
vn -0.000000 1.000000 -0.000000
vn 0.000000 0.000000 1.000000
usemtl Material.001
s off
f 2//1 3//1 4//1
f 5//2 6//2 7//2
f 4//3 3//3 8//3
f 6//2 9//2 10//2
f 7//3 10//3 11//3
f 4//1 11//1 12//1
f 12//4 11//4 10//4
f 1//1 2//1 4//1
f 8//2 5//2 7//2
f 7//3 4//3 8//3
f 7//2 6//2 10//2
f 4//3 7//3 11//3
f 1//1 4//1 12//1
f 9//4 12//4 10//4
o Cube_Cube_Wood_Cherry
v -4.865897 -3.003158 1.128543
v -4.865897 -0.202431 1.128543
v -4.865897 -0.202430 -1.229852
v -4.865897 -3.003158 -1.229854
v -2.245748 -0.202430 -1.229853
v -2.245748 -0.202431 1.128543
v -2.245748 -3.003158 1.128543
v -2.245748 -3.003158 -1.229852
v -4.870531 -0.192574 1.371339
v -2.250384 -0.192574 1.371339
v -2.250384 -0.192575 1.171340
v -4.870531 -0.192574 1.171340
v -4.870531 -2.992202 1.371338
v -2.250384 -2.992201 1.371338
v -4.870531 -2.992202 1.171339
v -2.250384 -2.992202 1.171339
v -4.865897 0.005440 -1.229852
v -2.245748 0.005440 -1.229853
v -2.245748 -0.202431 1.371060
v -4.865897 -0.202431 1.371060
vn -1.000000 -0.000000 0.000000
vn 1.000000 0.000000 0.000000
vn 0.000000 -0.000000 -1.000000
vn 0.000000 -1.000000 -0.000000
vn 0.000000 1.000000 -0.000000
vn 0.000000 -0.000000 1.000000
usemtl Wood_Cherry
s off
f 14//5 15//5 16//5
f 18//6 19//6 20//6
f 17//7 20//7 16//7
f 13//8 16//8 20//8
f 22//9 23//9 24//9
f 26//10 22//10 21//10
f 28//8 26//8 25//8
f 23//7 28//7 27//7
f 23//6 22//6 26//6
f 21//5 24//5 27//5
f 15//7 29//7 30//7
f 18//8 31//8 32//8
f 13//5 14//5 16//5
f 17//6 18//6 20//6
f 15//7 17//7 16//7
f 19//8 13//8 20//8
f 21//9 22//9 24//9
f 25//10 26//10 21//10
f 27//8 28//8 25//8
f 24//7 23//7 27//7
f 28//6 23//6 26//6
f 25//5 21//5 27//5
f 17//7 15//7 30//7
f 14//8 18//8 32//8
o Cube_Cube_Aluminum
v -4.622991 -0.280494 1.364952
v -4.622991 -0.347306 1.364952
v -4.714733 -0.347306 1.364952
v -4.714733 -0.280494 1.364952
v -4.714733 -0.347306 1.459033
v -4.714733 -0.280494 1.459033
v -4.622991 -0.280494 1.459033
v -4.622991 -0.347306 1.459033
v -4.622991 -0.280494 1.553115
v -4.622991 -0.347306 1.553115
v -4.714733 -0.280494 1.553115
v -4.714733 -0.347306 1.553115
v -4.622991 -0.689888 1.553115
v -4.622991 -0.689888 1.459033
v -4.714733 -0.689888 1.553115
v -4.714733 -0.689888 1.459033
v -4.714733 -0.758405 1.459033
v -4.714733 -0.758405 1.553115
v -4.622991 -0.758405 1.553115
v -4.622991 -0.758405 1.459033
v -4.622991 -0.758405 1.364952
v -4.622991 -0.689888 1.364952
v -4.714733 -0.758405 1.364952
v -4.714733 -0.689888 1.364952
v -4.860377 -2.991363 1.131456
v -2.252863 -2.991363 1.131456
v -2.252863 -0.194703 1.131456
v -4.860377 -0.194703 1.131456
vn 0.000000 0.000000 -1.000000
vn -1.000000 0.000000 0.000000
vn 0.000000 1.000000 0.000000
vn 1.000000 0.000000 0.000000
vn 0.000000 -1.000000 0.000000
vn 0.000000 0.000000 1.000000
usemtl Aluminum
s off
f 34//11 35//11 36//11
f 35//12 37//12 38//12
f 33//13 36//13 38//13
f 39//14 40//14 34//14
f 40//15 37//15 35//15
f 41//14 42//14 40//14
f 43//13 41//13 39//13
f 44//12 43//12 38//12
f 43//16 44//16 42//16
f 45//14 46//14 40//14
f 47//16 45//16 42//16
f 37//12 48//12 47//12
f 46//11 48//11 37//11
f 49//12 50//12 47//12
f 50//16 51//16 45//16
f 51//14 52//14 46//14
f 51//15 50//15 49//15
f 53//14 54//14 46//14
f 55//15 53//15 52//15
f 56//12 55//12 49//12
f 54//13 56//13 48//13
f 53//11 55//11 56//11
f 58//16 59//16 60//16
f 33//11 34//11 36//11
f 36//12 35//12 38//12
f 39//13 33//13 38//13
f 33//14 39//14 34//14
f 34//15 40//15 35//15
f 39//14 41//14 40//14
f 38//13 43//13 39//13
f 37//12 44//12 38//12
f 41//16 43//16 42//16
f 42//14 45//14 40//14
f 44//16 47//16 42//16
f 44//12 37//12 47//12
f 40//11 46//11 37//11
f 48//12 49//12 47//12
f 47//16 50//16 45//16
f 45//14 51//14 46//14
f 52//15 51//15 49//15
f 52//14 53//14 46//14
f 49//15 55//15 52//15
f 48//12 56//12 49//12
f 46//13 54//13 48//13
f 54//11 53//11 56//11
f 57//16 58//16 60//16
