# Blender v2.76 (sub 0) OBJ File: ''
# www.blender.org
mtllib lavello_doppio.mtl
o Cube.002_Cube.002_Aluminum
v -0.256661 -0.280325 1.356373
v -0.159147 -0.280325 1.356373
v -0.159147 -0.347272 1.356373
v -0.256661 -0.347272 1.356373
v -0.159147 -0.280325 1.456372
v -0.159147 -0.347272 1.456372
v -0.256661 -0.280325 1.456372
v -0.256661 -0.347272 1.456372
v -0.256661 -0.347272 1.556373
v -0.256661 -0.280325 1.556373
v -0.159147 -0.280325 1.556373
v -0.159147 -0.347272 1.556373
v -0.256661 -0.690542 1.456372
v -0.256661 -0.690542 1.556373
v -0.159147 -0.690542 1.556373
v -0.159147 -0.690542 1.456372
v -0.159147 -0.759196 1.556373
v -0.159147 -0.759196 1.456372
v -0.256661 -0.759196 1.556373
v -0.256661 -0.759196 1.456372
v -0.256661 -0.690542 1.356373
v -0.256661 -0.759196 1.356373
v -0.159147 -0.759196 1.356373
v -0.159147 -0.690542 1.356373
v 0.305612 -0.280325 1.356372
v 0.305612 -0.347271 1.356372
v 0.208099 -0.347271 1.356372
v 0.208099 -0.280325 1.356372
v 0.208099 -0.347271 1.456372
v 0.208099 -0.280325 1.456372
v 0.305612 -0.280325 1.456372
v 0.305612 -0.347271 1.456372
v 0.305612 -0.280325 1.556373
v 0.305612 -0.347271 1.556373
v 0.208099 -0.280325 1.556373
v 0.208099 -0.347271 1.556373
v 0.305612 -0.690542 1.556373
v 0.305612 -0.690542 1.456372
v 0.208099 -0.690542 1.556373
v 0.208099 -0.690542 1.456372
v 0.208099 -0.759196 1.456372
v 0.208099 -0.759196 1.556373
v 0.305612 -0.759196 1.556373
v 0.305612 -0.759196 1.456372
v 0.305612 -0.759196 1.356373
v 0.305612 -0.690542 1.356373
v 0.208099 -0.759196 1.356372
v 0.208099 -0.690542 1.356372
vn 0.000000 0.000000 -1.000000
vn 1.000000 0.000000 0.000000
vn 0.000000 1.000000 0.000000
vn -1.000000 0.000000 0.000000
vn 0.000000 -1.000000 0.000000
vn 0.000000 0.000000 1.000000
usemtl Aluminum
s off
f 2//1 3//1 4//1
f 3//2 2//2 5//2
f 5//3 2//3 1//3
f 4//4 8//4 7//4
f 3//5 6//5 8//5
f 8//4 9//4 10//4
f 7//3 10//3 11//3
f 6//2 5//2 11//2
f 9//6 12//6 11//6
f 8//4 13//4 14//4
f 9//6 14//6 15//6
f 6//2 12//2 15//2
f 6//1 16//1 13//1
f 15//2 17//2 18//2
f 14//6 19//6 17//6
f 13//4 20//4 19//4
f 18//5 17//5 19//5
f 13//4 21//4 22//4
f 20//5 22//5 23//5
f 18//2 23//2 24//2
f 16//3 24//3 21//3
f 24//1 23//1 22//1
f 26//1 27//1 28//1
f 27//4 29//4 30//4
f 25//3 28//3 30//3
f 31//2 32//2 26//2
f 32//5 29//5 27//5
f 33//2 34//2 32//2
f 35//3 33//3 31//3
f 36//4 35//4 30//4
f 35//6 36//6 34//6
f 37//2 38//2 32//2
f 39//6 37//6 34//6
f 40//4 39//4 36//4
f 38//1 40//1 29//1
f 41//4 42//4 39//4
f 42//6 43//6 37//6
f 43//2 44//2 38//2
f 43//5 42//5 41//5
f 45//2 46//2 38//2
f 41//5 47//5 45//5
f 48//4 47//4 41//4
f 46//3 48//3 40//3
f 45//1 47//1 48//1
f 1//1 2//1 4//1
f 6//2 3//2 5//2
f 7//3 5//3 1//3
f 1//4 4//4 7//4
f 4//5 3//5 8//5
f 7//4 8//4 10//4
f 5//3 7//3 11//3
f 12//2 6//2 11//2
f 10//6 9//6 11//6
f 9//4 8//4 14//4
f 12//6 9//6 15//6
f 16//2 6//2 15//2
f 8//1 6//1 13//1
f 16//2 15//2 18//2
f 15//6 14//6 17//6
f 14//4 13//4 19//4
f 20//5 18//5 19//5
f 20//4 13//4 22//4
f 18//5 20//5 23//5
f 16//2 18//2 24//2
f 13//3 16//3 21//3
f 21//1 24//1 22//1
f 25//1 26//1 28//1
f 28//4 27//4 30//4
f 31//3 25//3 30//3
f 25//2 31//2 26//2
f 26//5 32//5 27//5
f 31//2 33//2 32//2
f 30//3 35//3 31//3
f 29//4 36//4 30//4
f 33//6 35//6 34//6
f 34//2 37//2 32//2
f 36//6 39//6 34//6
f 29//4 40//4 36//4
f 32//1 38//1 29//1
f 40//4 41//4 39//4
f 39//6 42//6 37//6
f 37//2 43//2 38//2
f 44//5 43//5 41//5
f 44//2 45//2 38//2
f 44//5 41//5 45//5
f 40//4 48//4 41//4
f 38//3 46//3 40//3
f 46//1 45//1 48//1
o Plane_Plane_Aluminum
v -1.056503 -0.037298 0.864487
v -1.056503 0.020759 0.964809
v -0.289667 0.020759 0.964809
v -0.366598 -0.037298 0.864487
v -1.746409 -0.037298 0.864487
v -1.823340 0.020759 0.964809
v -0.097957 0.020759 -0.835191
v -0.194120 -0.037298 -0.754931
v -0.194120 -0.037298 -0.035191
v -0.097957 0.020759 -0.035191
v -0.097957 0.020759 0.764810
v -0.194120 -0.037298 0.684551
v -1.056503 0.020759 -1.035191
v -1.056503 -0.037298 -0.934868
v -0.366598 -0.037298 -0.934867
v -0.289667 0.020759 -1.035191
v -1.823340 0.020759 -1.035191
v -1.746409 -0.037298 -0.934868
v -2.015049 0.020759 -0.035191
v -2.015049 0.020759 0.764810
v -1.918885 -0.037298 0.684551
v -1.918885 -0.037298 -0.035191
v -2.015049 0.020759 -0.835191
v -1.918885 -0.037298 -0.754932
v -1.056503 -0.443704 0.757097
v -0.448947 -0.443704 0.757097
v -1.664060 -0.443704 0.757097
v -0.297059 -0.443704 -0.669021
v -0.297059 -0.443704 -0.035191
v -0.297059 -0.443704 0.598640
v -1.056503 -0.443704 -0.827478
v -0.448947 -0.443704 -0.827478
v -1.664060 -0.443704 -0.827478
v -1.815948 -0.443704 0.598639
v -1.815948 -0.443704 -0.035191
v -1.815948 -0.443704 -0.669021
v -0.573459 -0.538707 0.594728
v -1.056503 -0.538707 0.594728
v -1.539548 -0.538707 0.594728
v -0.452697 -0.538707 -0.539125
v -0.452697 -0.538707 -0.035191
v -0.452697 -0.538707 0.468744
v -1.056503 -0.538707 -0.665109
v -0.573459 -0.538707 -0.665109
v -1.539548 -0.538707 -0.665109
v -1.660309 -0.538707 0.468744
v -1.660309 -0.538707 -0.035191
v -1.660309 -0.538707 -0.539125
v -0.754601 -0.538707 -0.035191
v -1.056503 -0.538707 -0.035191
v -1.358407 -0.538707 -0.035191
v 0.093752 0.020759 -0.035191
v 0.093752 0.020759 -0.835191
v 0.093752 0.020759 0.764810
v 1.656106 -0.538707 -0.035191
v 1.354203 -0.538707 -0.035191
v 1.535345 -0.538707 0.594728
v 1.656106 -0.538707 0.468744
v 1.052299 -0.538707 0.594728
v 1.052299 -0.538707 -0.035191
v 0.750397 -0.538707 -0.035191
v 0.569254 -0.538707 0.594728
v 0.448493 -0.538707 -0.035191
v 0.448493 -0.538707 0.468744
v 0.448493 -0.538707 -0.539125
v 0.569254 -0.538707 -0.665109
v 1.052299 -0.538707 -0.665109
v 1.535345 -0.538707 -0.665109
v 1.656106 -0.538707 -0.539125
v 1.811745 -0.443704 0.598640
v 1.659855 -0.443704 0.757097
v 0.444744 -0.443704 0.757097
v 0.292855 -0.443704 0.598639
v 0.292855 -0.443704 -0.669021
v 0.444744 -0.443704 -0.827478
v 1.811745 -0.443704 -0.669021
v 1.659855 -0.443704 -0.827478
v 0.292855 -0.443704 -0.035191
v 1.052299 -0.443704 -0.827478
v 1.811745 -0.443704 -0.035191
v 1.052299 -0.443704 0.757097
v 1.914681 -0.037298 0.684551
v 1.742206 -0.037298 0.864487
v 0.362393 -0.037298 0.864487
v 0.189918 -0.037298 0.684551
v 0.189918 -0.037298 -0.754932
v 0.362393 -0.037298 -0.934868
v 1.914681 -0.037298 -0.754931
v 1.742206 -0.037298 -0.934867
v 0.189918 -0.037298 -0.035191
v 1.052299 -0.037298 -0.934868
v 1.914681 -0.037298 -0.035191
v 1.052299 -0.037298 0.864487
v 2.010847 0.020759 0.764810
v 1.819137 0.020759 0.964809
v 0.285461 0.020759 0.964809
v 0.285462 0.020759 -1.035191
v 2.010847 0.020759 -0.835191
v 1.819138 0.020759 -1.035191
v 1.052299 0.020759 -1.035191
v 2.010847 0.020759 -0.035191
v 1.052299 0.020759 0.964809
v -0.289667 0.020759 -1.131254
v -1.056503 0.020759 -1.131255
v -1.823340 0.020759 -1.131255
v 1.052299 0.020759 -1.131255
v 0.285462 0.020759 -1.131255
v 1.819138 0.020759 -1.131254
v 2.106701 0.020759 0.764810
v 2.106701 0.020759 -0.035191
v 2.106701 0.020759 -0.835191
v -2.110905 0.020759 -0.035191
v -2.110905 0.020759 0.764810
v -2.110905 0.020759 -0.835191
v -1.056503 0.020759 1.064810
v -0.289667 0.020759 1.064810
v -1.823340 0.020759 1.064810
v 0.285461 0.020759 1.064810
v 1.052299 0.020759 1.064810
v 1.819137 0.020759 1.064810
v -2.112356 0.020759 0.993943
v -2.042976 0.020759 1.066323
v 2.011987 0.020759 1.063619
v 2.105560 0.020759 1.020562
v 2.102174 0.020759 -1.094889
v 2.050282 0.020759 -1.128041
v -2.073225 0.020759 -1.128860
v -2.111328 0.020759 -1.058240
vn 0.000000 0.965800 -0.259300
vn -0.070500 0.986600 -0.147300
vn -0.261500 0.709800 -0.654000
vn 0.261500 0.709800 -0.654000
vn 0.070500 0.986600 -0.147300
vn -0.671300 0.697800 0.249600
vn -0.803400 0.595400 0.000000
vn -0.268200 0.963300 0.000000
vn -0.671300 0.697800 -0.249600
vn 0.000000 0.965800 0.259300
vn 0.000000 0.607000 0.794700
vn -0.261500 0.709800 0.654000
vn 0.070500 0.986600 0.147300
vn 0.261500 0.709800 0.654000
vn 0.268200 0.963300 0.000000
vn 0.153800 0.985500 -0.071200
vn 0.671300 0.697800 -0.249600
vn 0.803400 0.595400 0.000000
vn 0.671300 0.697800 0.249600
vn -0.153800 0.985500 0.071200
vn -0.070500 0.986600 0.147300
vn 0.153800 0.985500 0.071200
vn -0.153800 0.985500 -0.071200
vn 0.000000 0.607000 -0.794700
vn -0.306000 0.613000 -0.728400
vn 0.000000 0.605100 -0.796100
vn 0.306000 0.613000 -0.728400
vn -0.737700 0.608800 0.291700
vn -0.804800 0.593500 0.000000
vn -0.737700 0.608800 -0.291700
vn 0.000000 0.605100 0.796100
vn -0.306000 0.613000 0.728400
vn 0.306000 0.613000 0.728400
vn 0.737700 0.608800 -0.291700
vn 0.804800 0.593500 0.000000
vn 0.737700 0.608800 0.291700
vn -0.087700 0.960000 -0.266000
vn 0.000000 0.965100 -0.261600
vn 0.087700 0.960000 -0.266000
vn -0.274800 0.958100 0.080400
vn -0.270600 0.962700 0.000000
vn -0.274800 0.958100 -0.080400
vn 0.000000 0.965100 0.261600
vn -0.087700 0.960000 0.266000
vn 0.087700 0.960000 0.266000
vn 0.274800 0.958100 -0.080400
vn 0.270600 0.962700 0.000000
vn 0.274800 0.958100 0.080400
vn 0.000000 1.000000 0.000000
usemtl Aluminum
s 1
f 50//7 51//8 52//9
f 53//10 54//11 50//7
f 56//12 57//13 58//14
f 58//14 57//13 60//15
f 61//16 62//17 63//18
f 61//16 65//19 66//20
f 67//21 68//22 69//23
f 67//21 70//24 72//25
f 55//26 64//27 63//18
f 71//28 72//25 66//20
f 53//10 69//23 68//22
f 59//29 60//15 52//9
f 49//30 52//9 74//31
f 49//30 73//32 75//33
f 76//34 77//35 57//13
f 57//13 77//35 78//36
f 62//17 79//37 80//38
f 62//17 66//20 81//39
f 70//24 69//23 82//40
f 70//24 83//41 84//42
f 56//12 63//18 80//38
f 72//25 84//42 81//39
f 75//33 82//40 69//23
f 60//15 78//36 74//31
f 85//43 86//44 73//32
f 73//32 86//44 87//45
f 88//46 89//47 77//35
f 77//35 89//47 90//48
f 79//37 91//49 92//50
f 79//37 81//39 93//51
f 83//41 82//40 94//52
f 83//41 95//53 96//54
f 76//34 80//38 92//50
f 84//42 96//54 93//51
f 87//45 94//52 82//40
f 78//36 90//48 85//43
f 88//46 92//50 97//55
f 91//49 98//55 97//55
f 91//49 93//51 99//55
f 96//54 95//53 99//55
f 99//55 95//53 94//52
f 86//44 98//55 99//55
f 86//44 85//43 97//55
f 97//55 85//43 90//48
f 100//21 101//28 55//26
f 59//29 102//22 100//21
f 104//55 105//43 106//48
f 107//44 105//43 104//55
f 107//44 108//55 109//55
f 109//55 111//53 112//52
f 113//54 111//53 109//55
f 115//49 114//51 109//55
f 115//49 108//55 104//55
f 117//46 116//50 104//55
f 118//36 106//48 105//43
f 110//45 112//52 121//40
f 122//42 113//54 114//51
f 124//34 125//38 116//50
f 126//41 111//53 113//54
f 126//41 121//40 112//52
f 127//37 123//39 114//51
f 127//37 115//49 116//50
f 128//35 103//47 106//48
f 117//46 103//47 128//35
f 129//32 107//44 110//45
f 105//43 107//44 129//32
f 130//15 118//36 119//31
f 120//33 121//40 133//23
f 134//25 122//42 123//39
f 136//12 137//18 125//38
f 138//24 126//41 122//42
f 138//24 133//23 121//40
f 139//17 135//20 123//39
f 139//17 127//37 125//38
f 140//13 128//35 118//36
f 124//34 128//35 140//13
f 141//30 129//32 120//33
f 119//31 129//32 141//30
f 142//29 130//15 131//9
f 132//10 133//23 102//22
f 101//28 134//25 135//20
f 146//26 147//27 137//18
f 100//21 138//24 134//25
f 100//21 102//22 133//23
f 148//16 145//19 135//20
f 148//16 139//17 137//18
f 149//14 140//13 130//15
f 136//12 140//13 149//14
f 150//7 141//30 132//10
f 131//9 141//30 150//7
f 144//11 102//22 59//29
f 101//28 145//19 64//27
f 151//55 152//55 61//16
f 61//16 152//55 153//55
f 148//16 154//55 155//55
f 156//55 154//55 148//16
f 145//19 155//55 151//55
f 142//29 157//55 158//55
f 158//55 159//55 146//26
f 67//21 160//55 161//55
f 71//28 162//55 160//55
f 163//55 164//55 51//8
f 54//11 165//55 163//55
f 144//11 166//55 167//55
f 167//55 168//55 143//8
f 164//55 166//55 144//11
f 54//11 68//22 161//55
f 165//55 161//55 169//55
f 65//19 153//55 162//55
f 147//27 146//26 159//55
f 143//8 168//55 157//55
f 171//55 172//55 157//55
f 159//55 173//55 174//55
f 153//55 175//55 176//55
f 49//30 50//7 52//9
f 49//30 53//10 50//7
f 55//26 56//12 58//14
f 59//29 58//14 60//15
f 64//27 61//16 63//18
f 62//17 61//16 66//20
f 70//24 67//21 69//23
f 71//28 67//21 72//25
f 56//12 55//26 63//18
f 65//19 71//28 66//20
f 54//11 53//10 68//22
f 51//8 59//29 52//9
f 73//32 49//30 74//31
f 53//10 49//30 75//33
f 56//12 76//34 57//13
f 60//15 57//13 78//36
f 63//18 62//17 80//38
f 79//37 62//17 81//39
f 83//41 70//24 82//40
f 72//25 70//24 84//42
f 76//34 56//12 80//38
f 66//20 72//25 81//39
f 53//10 75//33 69//23
f 52//9 60//15 74//31
f 74//31 85//43 73//32
f 75//33 73//32 87//45
f 76//34 88//46 77//35
f 78//36 77//35 90//48
f 80//38 79//37 92//50
f 91//49 79//37 93//51
f 95//53 83//41 94//52
f 84//42 83//41 96//54
f 88//46 76//34 92//50
f 81//39 84//42 93//51
f 75//33 87//45 82//40
f 74//31 78//36 85//43
f 89//47 88//46 97//55
f 92//50 91//49 97//55
f 98//55 91//49 99//55
f 93//51 96//54 99//55
f 87//45 99//55 94//52
f 87//45 86//44 99//55
f 98//55 86//44 97//55
f 89//47 97//55 90//48
f 58//14 100//21 55//26
f 58//14 59//29 100//21
f 103//47 104//55 106//48
f 108//55 107//44 104//55
f 110//45 107//44 109//55
f 110//45 109//55 112//52
f 114//51 113//54 109//55
f 108//55 115//49 109//55
f 116//50 115//49 104//55
f 103//47 117//46 104//55
f 119//31 118//36 105//43
f 120//33 110//45 121//40
f 123//39 122//42 114//51
f 117//46 124//34 116//50
f 122//42 126//41 113//54
f 111//53 126//41 112//52
f 115//49 127//37 114//51
f 125//38 127//37 116//50
f 118//36 128//35 106//48
f 124//34 117//46 128//35
f 120//33 129//32 110//45
f 119//31 105//43 129//32
f 131//9 130//15 119//31
f 132//10 120//33 133//23
f 135//20 134//25 123//39
f 124//34 136//12 125//38
f 134//25 138//24 122//42
f 126//41 138//24 121//40
f 127//37 139//17 123//39
f 137//18 139//17 125//38
f 130//15 140//13 118//36
f 136//12 124//34 140//13
f 132//10 141//30 120//33
f 131//9 119//31 141//30
f 143//8 142//29 131//9
f 144//11 132//10 102//22
f 145//19 101//28 135//20
f 136//12 146//26 137//18
f 101//28 100//21 134//25
f 138//24 100//21 133//23
f 139//17 148//16 135//20
f 147//27 148//16 137//18
f 142//29 149//14 130//15
f 146//26 136//12 149//14
f 144//11 150//7 132//10
f 143//8 131//9 150//7
f 51//8 144//11 59//29
f 55//26 101//28 64//27
f 64//27 151//55 61//16
f 65//19 61//16 153//55
f 145//19 148//16 155//55
f 147//27 156//55 148//16
f 64//27 145//19 151//55
f 149//14 142//29 158//55
f 149//14 158//55 146//26
f 68//22 67//21 161//55
f 67//21 71//28 160//55
f 50//7 163//55 51//8
f 50//7 54//11 163//55
f 150//7 144//11 167//55
f 150//7 167//55 143//8
f 51//8 164//55 144//11
f 165//55 54//11 161//55
f 170//55 165//55 169//55
f 71//28 65//19 162//55
f 156//55 147//27 159//55
f 142//29 143//8 157//55
f 168//55 171//55 157//55
f 156//55 159//55 174//55
f 162//55 153//55 176//55
o Plane.001_Plane.001_Material
v 2.231409 0.013850 1.376233
v 2.087566 0.013850 1.061441
v -2.070970 0.013850 1.061441
v -2.212266 0.013850 1.376232
v 2.231409 0.013851 -1.231104
v 2.087566 0.013851 -1.135444
v -2.212265 0.013851 -1.231104
v -2.070969 0.013851 -1.135444
v -2.068424 -0.185361 1.061441
v -2.068422 -0.185360 -1.135444
v 2.067645 -0.185360 -1.135444
v 2.067645 -0.185361 1.061441
v -2.209720 -0.185360 -1.231104
v -2.209721 -0.185361 1.376233
v 2.231409 -0.185360 -1.231103
v 2.231409 -0.185361 1.376233
vn 0.000000 1.000000 0.000000
vn 0.999900 0.012800 0.000000
vn 0.000000 0.000000 1.000000
vn -0.995000 0.099500 0.000000
vn 0.000000 0.000000 -1.000000
vn -0.999900 -0.012800 -0.000000
vn 1.000000 0.000000 0.000000
vn 0.000000 -1.000000 -0.000000
usemtl Material.001
s off
f 178//56 179//56 180//56
f 178//56 177//56 181//56
f 182//56 181//56 183//56
f 179//56 184//56 183//56
f 185//57 186//57 184//57
f 184//58 186//58 187//58
f 187//59 188//59 178//59
f 188//60 185//60 179//60
f 189//61 190//61 180//61
f 181//60 191//60 189//60
f 177//62 192//62 191//62
f 177//58 180//58 190//58
f 188//63 192//63 190//63
f 188//63 187//63 191//63
f 187//63 186//63 189//63
f 185//63 190//63 189//63
f 177//56 178//56 180//56
f 182//56 178//56 181//56
f 184//56 182//56 183//56
f 180//56 179//56 183//56
f 179//57 185//57 184//57
f 182//58 184//58 187//58
f 182//59 187//59 178//59
f 178//60 188//60 179//60
f 183//61 189//61 180//61
f 183//60 181//60 189//60
f 181//62 177//62 191//62
f 192//58 177//58 190//58
f 185//63 188//63 190//63
f 192//63 188//63 191//63
f 191//63 187//63 189//63
f 186//63 185//63 189//63
o Cube.002_Cube.002_Wood_Cherry
v -0.003717 -0.190205 1.377322
v -0.003717 -0.190205 1.177322
v -2.191331 -0.190206 1.177322
v -2.191331 -0.190205 1.377323
v -0.003717 -2.996477 1.377321
v -2.191331 -2.996475 1.377321
v -0.003717 -2.996477 1.177322
v -2.191331 -2.996477 1.177322
v 0.029192 -0.190205 1.377322
v 2.204609 -0.190205 1.377322
v 2.204609 -0.190206 1.177322
v 0.029192 -0.190205 1.177322
v 0.029192 -2.996475 1.377321
v 2.204609 -2.996475 1.377321
v 0.029192 -2.996477 1.177320
v 2.204609 -2.996477 1.177320
v -2.088067 -2.995345 -1.133490
v -2.088067 -2.995345 -1.233490
v 2.111933 -2.995345 -1.233488
v 2.111933 -2.995345 -1.133489
v -2.088067 -0.185545 -1.133489
v 2.111933 -0.185545 -1.133488
v 2.111933 -0.185545 -1.233487
v -2.088066 -0.185545 -1.233489
v -2.197246 -2.995345 -1.233490
v -2.197246 -0.185545 -1.233491
v -2.197247 -0.185545 -1.133490
v -2.197246 -2.995345 -1.133490
v 2.211934 -0.185545 -1.233487
v 2.211934 -2.995345 -1.233488
v 2.211934 -0.185545 -1.133487
v 2.211934 -2.995345 -1.133489
v 2.111923 -0.185546 1.166512
v 2.211924 -0.185546 1.166512
v 2.211924 -2.995346 1.166512
v 2.111923 -2.995346 1.166512
v -2.088079 -2.995345 1.166511
v -2.197260 -2.995345 1.166510
v -2.197260 -0.185546 1.166511
v -2.088080 -0.185546 1.166511
vn -0.000000 1.000000 0.000000
vn 0.000000 -0.000000 1.000000
vn -0.000000 -1.000000 0.000000
vn 0.000000 0.000000 -1.000000
vn -1.000000 0.000000 0.000000
vn 1.000000 0.000000 0.000000
usemtl Wood_Cherry
s off
f 193//64 194//64 195//64
f 193//65 196//65 198//65
f 197//66 198//66 200//66
f 199//67 200//67 195//67
f 195//68 200//68 198//68
f 193//69 197//69 199//69
f 202//64 203//64 204//64
f 206//65 202//65 201//65
f 208//66 206//66 205//66
f 203//67 208//67 207//67
f 203//69 202//69 206//69
f 205//68 201//68 204//68
f 210//66 211//66 212//66
f 214//64 215//64 216//64
f 216//67 215//67 211//67
f 209//65 212//65 214//65
f 210//67 217//67 218//67
f 216//64 218//64 219//64
f 210//66 209//66 220//66
f 219//68 218//68 217//68
f 215//67 221//67 222//67
f 214//64 223//64 221//64
f 212//66 211//66 222//66
f 221//69 223//69 224//69
f 223//64 214//64 225//64
f 224//69 223//69 226//69
f 212//66 224//66 227//66
f 212//68 228//68 225//68
f 228//65 227//65 226//65
f 220//66 209//66 229//66
f 220//68 230//68 231//68
f 219//64 231//64 232//64
f 213//69 232//69 229//69
f 232//65 231//65 230//65
f 196//64 193//64 195//64
f 197//65 193//65 198//65
f 199//66 197//66 200//66
f 194//67 199//67 195//67
f 196//68 195//68 198//68
f 194//69 193//69 199//69
f 201//64 202//64 204//64
f 205//65 206//65 201//65
f 207//66 208//66 205//66
f 204//67 203//67 207//67
f 208//69 203//69 206//69
f 207//68 205//68 204//68
f 209//66 210//66 212//66
f 213//64 214//64 216//64
f 210//67 216//67 211//67
f 213//65 209//65 214//65
f 216//67 210//67 218//67
f 213//64 216//64 219//64
f 217//66 210//66 220//66
f 220//68 219//68 217//68
f 211//67 215//67 222//67
f 215//64 214//64 221//64
f 224//66 212//66 222//66
f 222//69 221//69 224//69
f 226//64 223//64 225//64
f 227//69 224//69 226//69
f 228//66 212//66 227//66
f 214//68 212//68 225//68
f 225//65 228//65 226//65
f 230//66 220//66 229//66
f 219//68 220//68 231//68
f 213//64 219//64 232//64
f 209//69 213//69 229//69
f 229//65 232//65 230//65
o Cube.001_Cube.001_Aluminum
v 0.018239 0.303963 -1.030472
v -0.364111 0.659297 -0.528991
v -0.380844 0.565772 -0.507044
v 0.018239 0.206451 -1.030472
v -0.458387 0.565772 -0.566167
v -0.059306 0.206451 -1.089594
v -0.441656 0.659297 -0.588113
v -0.059306 0.303963 -1.089594
v 0.001327 0.303963 -1.169116
v 0.001327 0.206451 -1.169116
v 0.078869 0.206451 -1.109994
v 0.078869 0.303963 -1.109994
v 0.078869 0.006451 -1.109994
v 0.001326 0.006451 -1.169116
v 0.018239 0.006451 -1.030472
v -0.059306 0.006451 -1.089594
v 0.001327 0.403963 -1.169116
v 0.078869 0.403963 -1.109994
v 0.018239 0.403963 -1.030472
v -0.059306 0.403963 -1.089594
v -0.499807 0.696651 -0.511842
v -0.422264 0.696651 -0.452719
v -0.516541 0.603126 -0.489896
v -0.438995 0.603126 -0.430773
v -0.478587 0.730988 -0.378847
v -0.495318 0.637463 -0.356901
v -0.572863 0.637463 -0.416024
v -0.556129 0.730988 -0.437970
v -0.538373 0.510673 -0.461262
v -0.460827 0.510673 -0.402139
v -0.402676 0.473318 -0.478410
v -0.480219 0.473318 -0.537533
vn 0.672200 0.250600 0.696600
vn 0.737300 0.652900 0.173400
vn 0.812800 -0.370000 0.449900
vn -0.649100 -0.370000 -0.664600
vn -0.950900 -0.275500 -0.141200
vn -0.362400 0.652900 -0.665100
vn -0.849800 0.250600 -0.463800
vn -0.133500 0.000000 -0.991000
vn 0.387900 -0.275500 0.879500
vn 0.991000 0.000000 -0.133600
vn 0.809200 -0.577300 -0.109000
vn 0.109100 -0.577300 0.809200
vn -0.109000 -0.577300 -0.809200
vn -0.809200 -0.577300 0.109000
vn -0.109000 0.577300 -0.809200
vn 0.809200 0.577300 -0.109000
vn -0.809200 0.577300 0.109000
vn 0.109100 0.577300 0.809200
vn -0.408200 0.662900 -0.627600
vn -0.954300 -0.173100 -0.243500
vn 0.713300 0.662900 0.227500
vn 0.487500 -0.173100 0.855700
vn 0.233700 0.732000 0.639900
vn 0.020900 -0.364900 0.930800
vn -0.903100 -0.364900 0.226300
vn -0.679000 0.732000 -0.056000
vn -0.912400 -0.328400 0.244400
vn 0.005900 -0.328400 0.944500
vn -0.260000 -0.747500 -0.611200
vn 0.658300 -0.747500 0.088800
usemtl Aluminum
s 1
f 233//70 234//71 235//72
f 235//72 237//73 238//74
f 237//73 239//75 240//76
f 234//71 233//70 240//76
f 240//76 241//77 242//77
f 233//70 236//78 243//79
f 242//77 241//77 244//79
f 242//77 243//79 245//80
f 236//78 247//81 245//80
f 238//74 242//77 246//82
f 238//74 248//83 247//81
f 247//81 248//83 246//82
f 244//79 241//77 249//84
f 233//70 244//79 250//85
f 240//76 252//86 249//84
f 233//70 251//87 252//86
f 251//87 250//85 249//84
f 234//71 239//75 253//88
f 239//75 237//73 255//89
f 234//71 254//90 256//91
f 254//90 257//92 258//93
f 255//89 256//91 258//93
f 253//88 255//89 259//94
f 254//90 253//88 260//95
f 257//92 260//95 259//94
f 255//89 261//96 262//97
f 235//72 256//91 262//97
f 255//89 237//73 264//98
f 235//72 263//99 264//98
f 264//98 263//99 262//97
f 236//78 233//70 235//72
f 236//78 235//72 238//74
f 238//74 237//73 240//76
f 239//75 234//71 240//76
f 238//74 240//76 242//77
f 244//79 233//70 243//79
f 243//79 242//77 244//79
f 246//82 242//77 245//80
f 243//79 236//78 245//80
f 248//83 238//74 246//82
f 236//78 238//74 247//81
f 245//80 247//81 246//82
f 250//85 244//79 249//84
f 251//87 233//70 250//85
f 241//77 240//76 249//84
f 240//76 233//70 252//86
f 252//86 251//87 249//84
f 254//90 234//71 253//88
f 253//88 239//75 255//89
f 235//72 234//71 256//91
f 256//91 254//90 258//93
f 259//94 255//89 258//93
f 260//95 253//88 259//94
f 257//92 254//90 260//95
f 258//93 257//92 259//94
f 256//91 255//89 262//97
f 263//99 235//72 262//97
f 261//96 255//89 264//98
f 237//73 235//72 264//98
f 261//96 264//98 262//97
