# Blender v2.76 (sub 0) OBJ File: ''
# www.blender.org
mtllib isola_cucina.mtl
o Cube_Cube_Piano
v -5.991269 -2.402966 -8.431651
v -2.637331 -2.402966 -8.431651
v -2.637331 -2.402966 -11.165255
v -5.991269 -2.402966 -11.165254
v -1.976153 -2.402966 -8.431651
v -1.976153 -2.402966 -11.165255
v -2.637331 -2.613731 -11.165255
v -1.976153 -2.613731 -11.165255
v -2.637331 -2.613731 -8.431651
v -1.976153 -2.613731 -8.431651
v -2.637331 -2.402966 -11.402365
v -5.991269 -2.402966 -11.402364
v -5.991269 -2.613730 -11.165254
v -5.991269 -2.613730 -11.402364
v -2.637331 -2.613731 -11.402365
v -5.991269 -2.402966 -7.367313
v -2.637331 -2.402966 -7.367313
v -5.991269 -2.613731 -8.431651
v -2.637331 -2.613731 -7.367313
v -5.991269 -2.613731 -7.366423
v -1.985919 -2.613731 -7.367313
v -1.985919 -2.402966 -7.367313
v -1.975716 -2.402966 -11.402365
v -1.975716 -2.613731 -11.402365
v -6.138968 -2.402966 -8.431651
v -6.138968 -2.402966 -7.367313
v -6.138968 -2.613731 -7.366405
v -6.138968 -2.613731 -8.431651
v -6.138968 -2.613730 -11.165254
v -6.138968 -2.613730 -11.402364
v -6.138968 -2.402966 -11.402364
v -6.138968 -2.402966 -11.165254
v -8.003678 -2.402966 -11.165254
v -8.003678 -2.402966 -8.431651
v -8.003678 -2.402966 -11.402364
v -8.003678 -2.613730 -11.402364
v -8.003678 -2.613730 -11.165254
v -8.003678 -2.613731 -7.367313
v -8.003678 -2.613731 -8.431651
v -8.003678 -2.402966 -7.367313
vn 0.000000 1.000000 -0.000000
vn 0.000000 0.000000 -1.000000
vn 0.000000 0.000000 1.000000
vn 0.000000 -1.000000 0.000000
vn 1.000000 0.000000 0.000000
vn 1.000000 0.000000 0.009200
vn 1.000000 0.000000 0.001800
vn 0.000000 0.004200 1.000000
vn 0.000000 0.004300 1.000000
vn -1.000000 0.000000 0.000000
vn 0.000300 0.004200 1.000000
vn 0.000100 0.004300 1.000000
vn -0.000500 0.000000 1.000000
usemtl Piano
s off
f 2//1 3//1 4//1
f 2//1 5//1 6//1
f 3//2 6//2 8//2
f 9//3 10//3 5//3
f 7//4 8//4 10//4
f 8//5 6//5 5//5
f 3//1 11//1 12//1
f 13//4 14//4 15//4
f 14//2 12//2 11//2
f 1//1 16//1 17//1
f 18//4 9//4 19//4
f 19//3 17//3 16//3
f 9//4 10//4 21//4
f 19//3 21//3 22//3
f 2//1 17//1 22//1
f 5//6 22//6 21//6
f 11//1 3//1 6//1
f 11//2 23//2 24//2
f 15//4 24//4 8//4
f 8//7 24//7 23//7
f 1//1 25//1 26//1
f 20//8 16//8 26//8
f 20//4 27//4 28//4
f 13//4 29//4 30//4
f 14//2 30//2 31//2
f 12//1 31//1 32//1
f 4//1 32//1 25//1
f 32//1 33//1 34//1
f 31//1 35//1 33//1
f 30//2 36//2 35//2
f 29//4 37//4 36//4
f 28//4 27//4 38//4
f 27//9 26//9 40//9
f 25//1 34//1 40//1
f 39//10 34//10 33//10
f 33//10 35//10 36//10
f 39//10 38//10 40//10
f 1//1 2//1 4//1
f 3//1 2//1 6//1
f 7//2 3//2 8//2
f 2//3 9//3 5//3
f 9//4 7//4 10//4
f 10//5 8//5 5//5
f 4//1 3//1 12//1
f 7//4 13//4 15//4
f 15//2 14//2 11//2
f 2//1 1//1 17//1
f 20//4 18//4 19//4
f 20//11 19//11 16//11
f 19//4 9//4 21//4
f 17//3 19//3 22//3
f 5//1 2//1 22//1
f 10//6 5//6 21//6
f 23//1 11//1 6//1
f 15//2 11//2 24//2
f 7//4 15//4 8//4
f 6//7 8//7 23//7
f 16//1 1//1 26//1
f 27//12 20//12 26//12
f 18//4 20//4 28//4
f 14//4 13//4 30//4
f 12//2 14//2 31//2
f 4//1 12//1 32//1
f 1//1 4//1 25//1
f 25//1 32//1 34//1
f 32//1 31//1 33//1
f 31//2 30//2 35//2
f 30//4 29//4 36//4
f 39//4 28//4 38//4
f 38//13 27//13 40//13
f 26//1 25//1 40//1
f 37//10 39//10 33//10
f 37//10 33//10 36//10
f 34//10 39//10 40//10
o Cube_Cube_Wood_Cherry
v -5.991269 -6.419276 -11.165255
v -2.637331 -6.419276 -11.165254
v -2.637331 -6.419276 -8.431651
v -5.991269 -6.419276 -8.431651
v -5.980720 -2.677863 -8.182214
v -4.268977 -2.677863 -8.182214
v -4.268977 -2.677863 -8.382214
v -5.980720 -2.677863 -8.382214
v -5.980720 -6.408319 -8.182214
v -4.268977 -6.408319 -8.182214
v -5.980720 -6.408319 -8.382215
v -4.268977 -6.408319 -8.382215
v -4.183389 -6.408319 -8.182214
v -4.183389 -2.677863 -8.182214
v -4.183389 -2.677863 -8.382214
v -4.183389 -6.408319 -8.382215
v -2.418566 -2.677863 -8.382214
v -2.418566 -2.677863 -8.182214
v -2.418566 -6.408319 -8.182214
v -2.418566 -6.408319 -8.382215
v -2.407497 -2.677862 -9.834454
v -2.407497 -2.677862 -11.161391
v -2.607497 -2.677862 -11.161391
v -2.607497 -2.677862 -9.834454
v -2.407497 -6.408319 -9.834455
v -2.407496 -6.408319 -11.161392
v -2.607497 -6.408319 -9.834455
v -2.607497 -6.408320 -11.161392
v -2.405989 -6.408319 -9.810223
v -2.605989 -6.408319 -9.810223
v -2.605989 -2.677862 -9.810222
v -2.405989 -2.677862 -9.810222
v -2.605989 -2.677863 -8.483284
v -2.605989 -6.408320 -8.483285
v -2.405989 -6.408319 -8.483285
v -2.405989 -2.677863 -8.483284
v -4.177968 -2.669201 -11.399517
v -4.177968 -2.669201 -11.199517
v -2.415404 -2.669201 -11.199517
v -2.415404 -2.669201 -11.399517
v -4.177968 -6.408319 -11.399518
v -2.415404 -6.408319 -11.399518
v -4.177968 -6.408319 -11.199518
v -2.415404 -6.408320 -11.199518
v -5.972926 -6.408319 -11.399518
v -5.972926 -6.408319 -11.199518
v -5.972926 -2.669201 -11.199517
v -5.972926 -2.669201 -11.399517
v -4.263442 -2.669201 -11.199517
v -4.263442 -6.408320 -11.199518
v -4.263442 -6.408319 -11.399518
v -4.263442 -2.669201 -11.399517
v -6.138968 -6.419276 -8.431651
v -6.138968 -6.419276 -11.165255
v -8.003678 -6.419276 -8.431651
v -8.003678 -6.419276 -11.165255
v -6.138968 -2.613730 -11.165254
v -8.003678 -2.613730 -11.165254
v -6.138968 -2.613731 -8.431651
v -8.003678 -2.613731 -8.431651
v -5.991269 -2.613731 -8.431651
v -5.991269 -2.613731 -7.366423
v -5.991269 -6.419276 -7.365479
v -6.138968 -2.613731 -7.366405
v -6.138968 -6.419276 -7.365479
vn 0.000000 -1.000000 0.000000
vn 0.000000 1.000000 0.000000
vn 0.000000 0.000000 1.000000
vn 0.000000 0.000000 -1.000000
vn 1.000000 0.000000 0.000000
vn -1.000000 -0.000000 0.000000
vn 0.000100 0.000200 1.000000
vn 0.000000 0.000200 1.000000
usemtl Wood_Cherry
s off
f 42//14 43//14 44//14
f 46//15 47//15 48//15
f 50//16 46//16 45//16
f 52//14 50//14 49//14
f 47//17 52//17 51//17
f 47//18 46//18 50//18
f 45//19 48//19 51//19
f 54//19 55//19 56//19
f 57//18 58//18 59//18
f 57//17 60//17 56//17
f 60//14 59//14 53//14
f 59//16 58//16 54//16
f 58//15 57//15 55//15
f 62//15 63//15 64//15
f 65//18 66//18 62//18
f 68//14 66//14 65//14
f 63//19 68//19 67//19
f 63//17 62//17 66//17
f 61//16 64//16 67//16
f 70//17 71//17 72//17
f 73//16 74//16 75//16
f 70//19 74//19 73//19
f 69//14 75//14 74//14
f 72//18 76//18 75//18
f 71//15 73//15 76//15
f 78//15 79//15 80//15
f 77//17 80//17 82//17
f 81//14 82//14 84//14
f 83//16 84//16 79//16
f 79//18 84//18 82//18
f 83//19 78//19 77//19
f 86//19 87//19 88//19
f 89//18 90//18 91//18
f 86//16 90//16 89//16
f 85//14 91//14 90//14
f 88//17 92//17 91//17
f 87//15 89//15 92//15
f 44//14 93//14 94//14
f 93//14 95//14 96//14
f 94//17 96//17 98//17
f 99//16 100//16 95//16
f 100//19 98//19 96//19
f 44//18 101//18 102//18
f 102//20 104//20 105//20
f 41//14 42//14 44//14
f 45//15 46//15 48//15
f 49//16 50//16 45//16
f 51//14 52//14 49//14
f 48//17 47//17 51//17
f 52//18 47//18 50//18
f 49//19 45//19 51//19
f 53//19 54//19 56//19
f 60//18 57//18 59//18
f 55//17 57//17 56//17
f 56//14 60//14 53//14
f 53//16 59//16 54//16
f 54//15 58//15 55//15
f 61//15 62//15 64//15
f 61//18 65//18 62//18
f 67//14 68//14 65//14
f 64//19 63//19 67//19
f 68//17 63//17 66//17
f 65//16 61//16 67//16
f 69//17 70//17 72//17
f 76//16 73//16 75//16
f 71//19 70//19 73//19
f 70//14 69//14 74//14
f 69//18 72//18 75//18
f 72//15 71//15 76//15
f 77//15 78//15 80//15
f 81//17 77//17 82//17
f 83//14 81//14 84//14
f 78//16 83//16 79//16
f 80//18 79//18 82//18
f 81//19 83//19 77//19
f 85//19 86//19 88//19
f 92//18 89//18 91//18
f 87//16 86//16 89//16
f 86//14 85//14 90//14
f 85//17 88//17 91//17
f 88//15 87//15 92//15
f 41//14 44//14 94//14
f 94//14 93//14 96//14
f 97//17 94//17 98//17
f 93//16 99//16 95//16
f 95//19 100//19 96//19
f 103//18 44//18 102//18
f 103//21 102//21 105//21
o Cube_Cube_Aluminum
v -5.769149 -2.732625 -8.203164
v -5.769149 -2.830139 -8.203164
v -5.852608 -2.830139 -8.203164
v -5.852608 -2.732625 -8.203164
v -5.852608 -2.830139 -8.103164
v -5.852608 -2.732625 -8.103164
v -5.769149 -2.732625 -8.103164
v -5.769149 -2.830139 -8.103164
v -5.769149 -2.732625 -8.003163
v -5.769149 -2.830138 -8.003163
v -5.852608 -2.732625 -8.003163
v -5.852608 -2.830138 -8.003163
v -5.769149 -3.330138 -8.003164
v -5.769149 -3.330137 -8.103165
v -5.852608 -3.330138 -8.003164
v -5.852608 -3.330137 -8.103165
v -5.852608 -3.430139 -8.103165
v -5.852608 -3.430139 -8.003164
v -5.769149 -3.430139 -8.003164
v -5.769149 -3.430139 -8.103165
v -5.769149 -3.430139 -8.203164
v -5.769149 -3.330137 -8.203164
v -5.852608 -3.430139 -8.203164
v -5.852608 -3.330137 -8.203164
v -2.637331 -2.613731 -11.165255
v -2.637331 -2.613731 -8.431651
v -2.637331 -6.419276 -8.431651
v -2.637331 -6.419276 -11.165254
v -5.991269 -2.613730 -11.165254
v -5.991269 -6.419276 -11.165255
v -5.991269 -6.419276 -8.431651
v -5.991269 -2.613731 -8.431651
v -3.971818 -3.330137 -8.203164
v -3.971818 -3.430139 -8.203164
v -4.055277 -3.430139 -8.203164
v -4.055277 -3.330137 -8.203164
v -3.971818 -3.330137 -8.103165
v -4.055277 -3.330137 -8.103165
v -4.055277 -3.430139 -8.103165
v -3.971818 -3.430139 -8.103165
v -3.971818 -3.430139 -8.003164
v -4.055277 -3.430139 -8.003164
v -3.971818 -3.330138 -8.003164
v -4.055277 -3.330138 -8.003164
v -3.971818 -2.830139 -8.103164
v -4.055277 -2.830139 -8.103164
v -4.055277 -2.830138 -8.003163
v -3.971818 -2.830138 -8.003163
v -3.971818 -2.732625 -8.003163
v -4.055277 -2.732625 -8.003163
v -4.055277 -2.732625 -8.103164
v -3.971818 -2.732625 -8.103164
v -3.971818 -2.830139 -8.203164
v -4.055277 -2.830139 -8.203164
v -3.971818 -2.732625 -8.203164
v -4.055277 -2.732625 -8.203164
v -2.428447 -2.732624 -9.998463
v -2.428447 -2.830138 -9.998463
v -2.428447 -2.830138 -9.933765
v -2.428447 -2.732624 -9.933765
v -2.328447 -2.830138 -9.933765
v -2.328447 -2.732624 -9.933765
v -2.328447 -2.732624 -9.998463
v -2.328447 -2.830138 -9.998463
v -2.228447 -2.732624 -9.998463
v -2.228447 -2.830138 -9.998463
v -2.228447 -2.732624 -9.933765
v -2.228447 -2.830138 -9.933765
v -2.228447 -3.330138 -9.998464
v -2.328447 -3.330138 -9.998464
v -2.228447 -3.330138 -9.933766
v -2.328447 -3.330138 -9.933766
v -2.328447 -3.430138 -9.933766
v -2.228447 -3.430138 -9.933766
v -2.228447 -3.430138 -9.998464
v -2.328447 -3.430138 -9.998464
v -2.428447 -3.430138 -9.998464
v -2.428447 -3.330138 -9.998464
v -2.428447 -3.430138 -9.933766
v -2.428447 -3.330138 -9.933766
v -2.426939 -3.330138 -9.646214
v -2.426939 -3.430138 -9.646214
v -2.426939 -3.430138 -9.710911
v -2.426939 -3.330138 -9.710911
v -2.326939 -3.330138 -9.646214
v -2.326939 -3.330138 -9.710911
v -2.326939 -3.430138 -9.710911
v -2.326939 -3.430138 -9.646214
v -2.226939 -3.430138 -9.646214
v -2.226939 -3.430138 -9.710911
v -2.226939 -3.330138 -9.646214
v -2.226939 -3.330138 -9.710911
v -2.326939 -2.830138 -9.646213
v -2.326939 -2.830138 -9.710910
v -2.226939 -2.830138 -9.710910
v -2.226939 -2.830138 -9.646213
v -2.226939 -2.732624 -9.646213
v -2.226939 -2.732624 -9.710910
v -2.326939 -2.732624 -9.710910
v -2.326939 -2.732624 -9.646213
v -2.426939 -2.830138 -9.646213
v -2.426939 -2.830138 -9.710910
v -2.426939 -2.732624 -9.646213
v -2.426939 -2.732624 -9.710910
v -3.966675 -2.732624 -11.378567
v -3.966675 -2.830138 -11.378567
v -4.050024 -2.830138 -11.378567
v -4.050024 -2.732624 -11.378567
v -4.050024 -2.830138 -11.478567
v -4.050024 -2.732624 -11.478567
v -3.966675 -2.732624 -11.478567
v -3.966675 -2.830138 -11.478567
v -3.966675 -2.732624 -11.578567
v -3.966675 -2.830138 -11.578567
v -4.050024 -2.732624 -11.578567
v -4.050024 -2.830138 -11.578567
v -3.966675 -3.330138 -11.578568
v -3.966675 -3.330138 -11.478568
v -4.050024 -3.330138 -11.578568
v -4.050024 -3.330138 -11.478568
v -4.050024 -3.430138 -11.478568
v -4.050024 -3.430138 -11.578568
v -3.966675 -3.430138 -11.578568
v -3.966675 -3.430138 -11.478568
v -3.966675 -3.430138 -11.378568
v -3.966675 -3.330138 -11.378568
v -4.050024 -3.430138 -11.378568
v -4.050024 -3.330138 -11.378568
v -5.761634 -3.330138 -11.378568
v -5.761634 -3.430138 -11.378568
v -5.844983 -3.430138 -11.378568
v -5.844983 -3.330138 -11.378568
v -5.761634 -3.330138 -11.478568
v -5.844983 -3.330138 -11.478568
v -5.844983 -3.430138 -11.478568
v -5.761634 -3.430138 -11.478568
v -5.761634 -3.430138 -11.578568
v -5.844983 -3.430138 -11.578568
v -5.761634 -3.330138 -11.578568
v -5.844983 -3.330138 -11.578568
v -5.761634 -2.830138 -11.478567
v -5.844983 -2.830138 -11.478567
v -5.844983 -2.830138 -11.578567
v -5.761634 -2.830138 -11.578567
v -5.761634 -2.732624 -11.578567
v -5.844983 -2.732624 -11.578567
v -5.844983 -2.732624 -11.478567
v -5.761634 -2.732624 -11.478567
v -5.761634 -2.830138 -11.378567
v -5.844983 -2.830138 -11.378567
v -5.761634 -2.732624 -11.378567
v -5.844983 -2.732624 -11.378567
v -6.138968 -6.419276 -11.165255
v -6.138968 -2.613730 -11.165254
v -6.138968 -6.419276 -8.431651
v -5.991269 -6.419276 -7.365479
v -6.138968 -6.419276 -7.365479
v -6.138968 -2.613731 -8.431651
v -6.138968 -2.613731 -7.366405
vn 0.000000 0.000000 -1.000000
vn -1.000000 0.000000 0.000000
vn 0.000000 1.000000 0.000000
vn 1.000000 0.000000 0.000000
vn 0.000000 -1.000000 0.000000
vn 0.000000 0.000000 1.000000
usemtl Aluminum
s off
f 107//22 108//22 109//22
f 110//23 111//23 109//23
f 106//24 109//24 111//24
f 112//25 113//25 107//25
f 113//26 110//26 108//26
f 112//25 114//25 115//25
f 116//24 114//24 112//24
f 117//23 116//23 111//23
f 116//27 117//27 115//27
f 118//25 119//25 113//25
f 120//27 118//27 115//27
f 110//23 121//23 120//23
f 119//22 121//22 110//22
f 122//23 123//23 120//23
f 123//27 124//27 118//27
f 118//25 124//25 125//25
f 124//26 123//26 122//26
f 126//25 127//25 119//25
f 128//26 126//26 125//26
f 129//23 128//23 122//23
f 127//24 129//24 121//24
f 126//22 128//22 129//22
f 130//25 131//25 132//25
f 130//22 133//22 135//22
f 132//27 131//27 137//27
f 139//22 140//22 141//22
f 138//24 141//24 143//24
f 141//23 140//23 144//23
f 140//26 139//26 145//26
f 139//25 138//25 142//25
f 146//26 147//26 144//26
f 148//25 146//25 145//25
f 147//27 146//27 148//27
f 144//23 147//23 149//23
f 142//22 143//22 151//22
f 151//23 143//23 149//23
f 149//27 148//27 153//27
f 148//25 142//25 150//25
f 155//27 152//27 153//27
f 152//23 155//23 156//23
f 155//24 154//24 157//24
f 157//25 154//25 153//25
f 150//26 151//26 159//26
f 157//25 150//25 158//25
f 160//24 161//24 156//24
f 151//23 156//23 161//23
f 158//22 159//22 161//22
f 163//23 164//23 165//23
f 166//27 167//27 165//27
f 162//24 165//24 167//24
f 168//22 169//22 163//22
f 169//26 166//26 164//26
f 170//22 171//22 169//22
f 172//24 170//24 168//24
f 173//27 172//27 167//27
f 172//25 173//25 171//25
f 174//22 175//22 169//22
f 176//25 174//25 171//25
f 177//27 176//27 173//27
f 169//23 175//23 177//23
f 178//27 179//27 176//27
f 179//25 180//25 174//25
f 180//22 181//22 175//22
f 180//26 179//26 178//26
f 182//22 183//22 175//22
f 184//26 182//26 181//26
f 185//27 184//27 178//27
f 183//24 185//24 177//24
f 182//23 184//23 185//23
f 187//25 188//25 189//25
f 186//26 189//26 191//26
f 189//27 188//27 192//27
f 188//24 187//24 193//24
f 187//22 186//22 190//22
f 194//24 195//24 192//24
f 194//22 193//22 190//22
f 195//23 194//23 196//23
f 192//27 195//27 197//27
f 190//25 191//25 199//25
f 191//27 197//27 200//27
f 200//23 197//23 196//23
f 196//22 190//22 198//22
f 203//23 200//23 201//23
f 200//27 203//27 204//27
f 203//26 202//26 205//26
f 202//22 201//22 198//22
f 198//24 199//24 207//24
f 205//22 198//22 206//22
f 208//26 209//26 204//26
f 199//27 204//27 209//27
f 206//25 207//25 209//25
f 211//22 212//22 213//22
f 214//25 215//25 213//25
f 210//26 213//26 215//26
f 216//23 217//23 211//23
f 217//24 214//24 212//24
f 218//23 219//23 217//23
f 220//26 218//26 216//26
f 221//25 220//25 215//25
f 220//27 221//27 219//27
f 219//23 222//23 223//23
f 224//27 222//27 219//27
f 225//25 224//25 221//25
f 223//22 225//22 214//22
f 226//25 227//25 224//25
f 227//27 228//27 222//27
f 228//23 229//23 223//23
f 228//24 227//24 226//24
f 230//23 231//23 223//23
f 232//24 230//24 229//24
f 233//25 232//25 226//25
f 231//26 233//26 225//26
f 230//22 232//22 233//22
f 235//22 236//22 237//22
f 234//26 237//26 239//26
f 237//25 236//25 240//25
f 236//24 235//24 241//24
f 235//23 234//23 238//23
f 242//24 243//24 240//24
f 242//23 241//23 238//23
f 243//27 242//27 244//27
f 240//25 243//25 245//25
f 238//22 239//22 247//22
f 239//25 245//25 248//25
f 245//27 244//27 249//27
f 249//23 244//23 238//23
f 251//27 248//27 249//27
f 248//25 251//25 252//25
f 251//26 250//26 253//26
f 250//23 249//23 246//23
f 246//24 247//24 255//24
f 253//23 246//23 254//23
f 256//26 257//26 252//26
f 247//25 252//25 257//25
f 254//22 255//22 257//22
f 135//22 258//22 259//22
f 136//26 261//26 262//26
f 260//23 262//23 264//23
f 106//22 107//22 109//22
f 108//23 110//23 109//23
f 112//24 106//24 111//24
f 106//25 112//25 107//25
f 107//26 113//26 108//26
f 113//25 112//25 115//25
f 111//24 116//24 112//24
f 110//23 117//23 111//23
f 114//27 116//27 115//27
f 115//25 118//25 113//25
f 117//27 120//27 115//27
f 117//23 110//23 120//23
f 113//22 119//22 110//22
f 121//23 122//23 120//23
f 120//27 123//27 118//27
f 119//25 118//25 125//25
f 125//26 124//26 122//26
f 125//25 126//25 119//25
f 122//26 128//26 125//26
f 121//23 129//23 122//23
f 119//24 127//24 121//24
f 127//22 126//22 129//22
f 133//25 130//25 132//25
f 134//22 130//22 135//22
f 136//27 132//27 137//27
f 138//22 139//22 141//22
f 142//24 138//24 143//24
f 143//23 141//23 144//23
f 144//26 140//26 145//26
f 145//25 139//25 142//25
f 145//26 146//26 144//26
f 142//25 148//25 145//25
f 149//27 147//27 148//27
f 143//23 144//23 149//23
f 150//22 142//22 151//22
f 152//23 151//23 149//23
f 152//27 149//27 153//27
f 153//25 148//25 150//25
f 154//27 155//27 153//27
f 151//23 152//23 156//23
f 156//24 155//24 157//24
f 150//25 157//25 153//25
f 158//26 150//26 159//26
f 160//25 157//25 158//25
f 157//24 160//24 156//24
f 159//23 151//23 161//23
f 160//22 158//22 161//22
f 162//23 163//23 165//23
f 164//27 166//27 165//27
f 168//24 162//24 167//24
f 162//22 168//22 163//22
f 163//26 169//26 164//26
f 168//22 170//22 169//22
f 167//24 172//24 168//24
f 166//27 173//27 167//27
f 170//25 172//25 171//25
f 171//22 174//22 169//22
f 173//25 176//25 171//25
f 166//27 177//27 173//27
f 166//23 169//23 177//23
f 177//27 178//27 176//27
f 176//25 179//25 174//25
f 174//22 180//22 175//22
f 181//26 180//26 178//26
f 181//22 182//22 175//22
f 178//26 184//26 181//26
f 177//27 185//27 178//27
f 175//24 183//24 177//24
f 183//23 182//23 185//23
f 186//25 187//25 189//25
f 190//26 186//26 191//26
f 191//27 189//27 192//27
f 192//24 188//24 193//24
f 193//22 187//22 190//22
f 193//24 194//24 192//24
f 196//22 194//22 190//22
f 197//23 195//23 196//23
f 191//27 192//27 197//27
f 198//25 190//25 199//25
f 199//27 191//27 200//27
f 201//23 200//23 196//23
f 201//22 196//22 198//22
f 202//23 203//23 201//23
f 199//27 200//27 204//27
f 204//26 203//26 205//26
f 205//22 202//22 198//22
f 206//24 198//24 207//24
f 208//22 205//22 206//22
f 205//26 208//26 204//26
f 207//27 199//27 209//27
f 208//25 206//25 209//25
f 210//22 211//22 213//22
f 212//25 214//25 213//25
f 216//26 210//26 215//26
f 210//23 216//23 211//23
f 211//24 217//24 212//24
f 216//23 218//23 217//23
f 215//26 220//26 216//26
f 214//25 221//25 215//25
f 218//27 220//27 219//27
f 217//23 219//23 223//23
f 221//27 224//27 219//27
f 214//25 225//25 221//25
f 217//22 223//22 214//22
f 225//25 226//25 224//25
f 224//27 227//27 222//27
f 222//23 228//23 223//23
f 229//24 228//24 226//24
f 229//23 230//23 223//23
f 226//24 232//24 229//24
f 225//25 233//25 226//25
f 223//26 231//26 225//26
f 231//22 230//22 233//22
f 234//22 235//22 237//22
f 238//26 234//26 239//26
f 239//25 237//25 240//25
f 240//24 236//24 241//24
f 241//23 235//23 238//23
f 241//24 242//24 240//24
f 244//23 242//23 238//23
f 245//27 243//27 244//27
f 239//25 240//25 245//25
f 246//22 238//22 247//22
f 247//25 239//25 248//25
f 248//27 245//27 249//27
f 246//23 249//23 238//23
f 250//27 251//27 249//27
f 247//25 248//25 252//25
f 252//26 251//26 253//26
f 253//23 250//23 246//23
f 254//24 246//24 255//24
f 256//23 253//23 254//23
f 253//26 256//26 252//26
f 255//25 247//25 257//25
f 256//22 254//22 257//22
f 134//22 135//22 259//22
f 260//26 136//26 262//26
f 263//23 260//23 264//23
