# Blender v2.76 (sub 0) OBJ File: ''
# www.blender.org
mtllib coffeeTable.mtl
o table
v -59.979500 20.279858 26.042904
v -59.979500 18.279858 26.042904
v -59.978157 18.279858 28.042894
v -59.979500 -23.720133 26.042889
v -59.978157 -23.720133 28.042879
v -59.978157 -21.720133 28.042879
v 60.021797 18.279858 27.962526
v 60.020454 18.279858 25.962536
v 60.020454 20.279858 25.962536
v 60.021797 -21.720133 27.962511
v 60.021797 -23.720133 27.962511
v 60.020454 -23.720133 25.962521
v -59.978157 20.279858 28.042894
v -57.978165 20.279858 28.041559
v -57.979500 20.279858 26.041565
v -57.979500 -23.720133 26.041550
v -57.978165 -23.720133 28.041544
v -57.978165 18.279858 28.041559
v -57.978165 -21.720133 28.041544
v 58.021797 20.279858 27.963869
v 58.020454 20.279858 25.963875
v 58.021797 -23.720133 27.963854
v 60.021797 20.279858 27.962526
v 58.021797 18.279858 27.963869
v 58.021797 -21.720133 27.963854
v 58.020454 18.279858 25.963875
v 58.020454 -21.720133 25.963860
v -57.979500 -21.720133 26.041550
v -57.979500 18.279858 26.041565
v 58.020454 -23.720133 25.963860
v 57.976250 20.279871 -40.036121
v 57.976250 18.279879 -40.036121
v 57.976250 -21.720112 -40.036137
v 59.976250 20.279871 -40.037464
v 57.976250 -23.720104 -40.036137
v 60.020454 -21.720133 25.962521
v -58.023705 18.279879 -39.958431
v -58.023705 20.279871 -39.958431
v -58.023705 -23.720104 -39.958447
v -60.023705 20.279871 -39.957096
v -60.023705 18.279879 -39.957096
v -59.979500 -21.720133 26.042889
v -58.023705 -21.720112 -39.958447
v 59.976250 18.279879 -40.037464
v 59.976250 -23.720104 -40.037479
v -60.023705 -21.720112 -39.957111
v -60.025040 20.279877 -41.957088
v -60.025040 18.279881 -41.957088
v -60.025040 -23.720106 -41.957104
v -60.023705 -23.720104 -39.957111
v 59.974915 18.279881 -42.037457
v 59.976250 -21.720112 -40.037479
v 59.974915 -23.720106 -42.037472
v -58.025047 18.279881 -41.958431
v -60.025040 -21.720106 -41.957104
v -58.025047 20.279877 -41.958431
v 57.974915 18.279881 -42.036121
v 57.974915 -21.720106 -42.036137
v 59.974915 20.279877 -42.037457
v 57.974915 20.279877 -42.036121
v 57.974915 -23.720106 -42.036137
v -58.025047 -23.720106 -41.958447
v -58.025047 -21.720106 -41.958447
v 58.020454 -1.720140 25.963863
v 58.021797 -1.720140 27.963861
v 60.020454 -1.720140 25.962524
v 60.021797 -1.720140 27.962519
v -57.978165 -1.720140 28.041552
v -57.979500 -1.720140 26.041553
v -59.979500 -1.720140 26.042892
v -59.978157 -1.720140 28.042887
v 58.003044 -0.720141 -0.036144
v 58.001701 -0.720139 -2.036141
v -57.998253 -0.720139 -1.958452
v 58.003044 -2.720134 -0.036145
v -57.996918 -0.720141 0.041547
v 58.001701 -2.720137 -2.036143
v -57.996918 -2.720134 0.041546
v 60.001701 -0.720139 -2.037480
v 60.001701 -2.720137 -2.037482
v -57.998253 -2.720137 -1.958453
v -59.998253 -2.720137 -1.957113
v 60.003044 -0.720141 -0.037484
v -59.998253 -0.720139 -1.957111
v -59.996910 -2.720134 0.042884
v 60.003044 -2.720134 -0.037485
v -59.996910 -0.720141 0.042885
v -59.979500 -2.720146 26.042889
v -59.979500 -0.720148 26.042889
v 60.020454 -2.720146 25.962521
v -57.979500 -0.720148 26.041550
v -57.979500 -2.720146 26.041550
v 58.020454 -2.720146 25.963860
v 60.020454 -0.720148 25.962521
v 58.020454 -0.720148 25.963860
v 59.974915 -21.720106 -42.037472
v 60.020500 -0.720149 25.962521
v -59.979492 -0.720149 26.042885
v -59.998215 -0.720139 -1.957124
v -59.979492 0.279851 26.042885
v -59.998215 0.279861 -1.957124
v 60.001747 -0.720139 -2.037475
v 60.001747 0.279861 -2.037475
v 60.020500 0.279851 25.962521
v 60.021835 20.279858 27.962526
v -59.978157 20.279858 28.042887
v -60.025009 20.279881 -41.957119
v -59.978157 21.279858 28.042887
v -60.025009 21.279881 -41.957119
v 59.974953 20.279881 -42.037464
v 59.974953 21.279881 -42.037464
v 60.021835 21.279858 27.962526
vn -0.000000 -1.000000 -0.000000
vn -1.000000 0.000000 0.000700
vn -0.000700 0.000000 -1.000000
vn 1.000000 0.000000 -0.000700
vn 0.000700 0.000000 1.000000
vn 0.000000 1.000000 0.000000
usemtl tableglass.black.002
s 1
f 105//1 106//1 107//1
f 108//2 109//2 107//2
f 110//3 107//3 109//3
f 111//4 112//4 105//4
f 112//5 108//5 106//5
f 112//6 111//6 109//6
f 110//1 105//1 107//1
f 106//2 108//2 107//2
f 111//3 110//3 109//3
f 110//4 111//4 105//4
f 105//5 112//5 106//5
f 108//6 112//6 109//6
usemtl aluminium.007
f 1//2 2//2 3//2
f 4//2 5//2 6//2
f 7//4 8//4 9//4
f 10//4 11//4 12//4
f 13//6 14//6 15//6
f 16//1 17//1 5//1
f 13//5 3//5 18//5
f 5//5 17//5 19//5
f 20//6 21//6 15//6
f 22//1 17//1 16//1
f 20//6 23//6 9//6
f 12//1 11//1 22//1
f 20//5 24//5 7//5
f 22//5 11//5 10//5
f 14//5 18//5 24//5
f 17//5 22//5 25//5
f 26//1 24//1 18//1
f 27//6 28//6 19//6
f 21//3 26//3 29//3
f 30//3 16//3 28//3
f 21//2 31//2 32//2
f 30//2 27//2 33//2
f 9//6 34//6 31//6
f 12//1 30//1 35//1
f 8//1 26//1 32//1
f 33//6 27//6 36//6
f 29//4 37//4 38//4
f 28//4 16//4 39//4
f 15//6 38//6 40//6
f 39//1 16//1 4//1
f 2//1 41//1 37//1
f 42//6 28//6 43//6
f 8//4 44//4 34//4
f 36//4 12//4 45//4
f 1//2 40//2 41//2
f 4//2 42//2 46//2
f 40//2 47//2 48//2
f 49//2 50//2 46//2
f 34//4 44//4 51//4
f 52//4 45//4 53//4
f 41//1 48//1 54//1
f 55//6 46//6 43//6
f 38//6 56//6 47//6
f 39//1 50//1 49//1
f 44//1 32//1 57//1
f 58//6 33//6 52//6
f 34//6 59//6 60//6
f 45//1 35//1 61//1
f 56//3 54//3 48//3
f 62//3 49//3 55//3
f 59//3 51//3 57//3
f 53//3 61//3 58//3
f 60//3 57//3 54//3
f 61//3 62//3 63//3
f 57//1 32//1 37//1
f 58//6 63//6 43//6
f 32//5 31//5 38//5
f 33//5 43//5 39//5
f 31//6 60//6 56//6
f 35//1 39//1 62//1
f 26//2 64//2 65//2
f 64//2 27//2 25//2
f 8//3 66//3 64//3
f 36//3 27//3 64//3
f 24//5 65//5 67//5
f 25//5 10//5 67//5
f 18//4 68//4 69//4
f 19//4 28//4 69//4
f 29//3 69//3 70//3
f 28//3 42//3 70//3
f 3//5 71//5 68//5
f 6//5 19//5 68//5
f 7//4 67//4 66//4
f 10//4 36//4 66//4
f 2//2 70//2 71//2
f 42//2 6//2 71//2
f 72//6 73//6 74//6
f 75//5 72//5 76//5
f 77//1 75//1 78//1
f 74//3 73//3 77//3
f 79//3 80//3 77//3
f 74//3 81//3 82//3
f 72//6 83//6 79//6
f 75//1 77//1 80//1
f 76//6 74//6 84//6
f 78//1 85//1 82//1
f 86//4 80//4 79//4
f 85//2 87//2 84//2
f 88//2 89//2 87//2
f 90//4 86//4 83//4
f 88//1 85//1 78//1
f 91//6 76//6 87//6
f 92//4 78//4 76//4
f 93//1 75//1 86//1
f 94//6 83//6 72//6
f 93//2 95//2 72//2
f 90//5 94//5 95//5
f 91//5 89//5 88//5
f 13//2 1//2 3//2
f 42//2 4//2 6//2
f 23//4 7//4 9//4
f 36//4 10//4 12//4
f 1//6 13//6 15//6
f 4//1 16//1 5//1
f 14//5 13//5 18//5
f 6//5 5//5 19//5
f 14//6 20//6 15//6
f 30//1 22//1 16//1
f 21//6 20//6 9//6
f 30//1 12//1 22//1
f 23//5 20//5 7//5
f 25//5 22//5 10//5
f 20//5 14//5 24//5
f 19//5 17//5 25//5
f 29//1 26//1 18//1
f 25//6 27//6 19//6
f 15//3 21//3 29//3
f 27//3 30//3 28//3
f 26//2 21//2 32//2
f 35//2 30//2 33//2
f 21//6 9//6 31//6
f 45//1 12//1 35//1
f 44//1 8//1 32//1
f 52//6 33//6 36//6
f 15//4 29//4 38//4
f 43//4 28//4 39//4
f 1//6 15//6 40//6
f 50//1 39//1 4//1
f 29//1 2//1 37//1
f 46//6 42//6 43//6
f 9//4 8//4 34//4
f 52//4 36//4 45//4
f 2//2 1//2 41//2
f 50//2 4//2 46//2
f 41//2 40//2 48//2
f 55//2 49//2 46//2
f 59//4 34//4 51//4
f 96//4 52//4 53//4
f 37//1 41//1 54//1
f 63//6 55//6 43//6
f 40//6 38//6 47//6
f 62//1 39//1 49//1
f 51//1 44//1 57//1
f 96//6 58//6 52//6
f 31//6 34//6 60//6
f 53//1 45//1 61//1
f 47//3 56//3 48//3
f 63//3 62//3 55//3
f 60//3 59//3 57//3
f 96//3 53//3 58//3
f 56//3 60//3 54//3
f 58//3 61//3 63//3
f 54//1 57//1 37//1
f 33//6 58//6 43//6
f 37//5 32//5 38//5
f 35//5 33//5 39//5
f 38//6 31//6 56//6
f 61//1 35//1 62//1
f 24//2 26//2 65//2
f 65//2 64//2 25//2
f 26//3 8//3 64//3
f 66//3 36//3 64//3
f 7//5 24//5 67//5
f 65//5 25//5 67//5
f 29//4 18//4 69//4
f 68//4 19//4 69//4
f 2//3 29//3 70//3
f 69//3 28//3 70//3
f 18//5 3//5 68//5
f 71//5 6//5 68//5
f 8//4 7//4 66//4
f 67//4 10//4 66//4
f 3//2 2//2 71//2
f 70//2 42//2 71//2
f 76//6 72//6 74//6
f 78//5 75//5 76//5
f 81//1 77//1 78//1
f 81//3 74//3 77//3
f 73//3 79//3 77//3
f 84//3 74//3 82//3
f 73//6 72//6 79//6
f 86//1 75//1 80//1
f 87//6 76//6 84//6
f 81//1 78//1 82//1
f 83//4 86//4 79//4
f 82//2 85//2 84//2
f 85//2 88//2 87//2
f 94//4 90//4 83//4
f 92//1 88//1 78//1
f 89//6 91//6 87//6
f 91//4 92//4 76//4
f 90//1 93//1 86//1
f 95//6 94//6 72//6
f 75//2 93//2 72//2
f 93//5 90//5 95//5
f 92//5 91//5 88//5
usemtl tableglass.001
f 97//1 98//1 99//1
f 100//2 101//2 99//2
f 102//3 99//3 101//3
f 103//4 104//4 97//4
f 104//5 100//5 98//5
f 103//6 101//6 100//6
f 102//1 97//1 99//1
f 98//2 100//2 99//2
f 103//3 102//3 101//3
f 102//4 103//4 97//4
f 97//5 104//5 98//5
f 104//6 103//6 100//6
